<?xml version="1.0" encoding="UTF-8"?>
<!DOCTYPE svg PUBLIC "-//W3C//DTD SVG 1.1//EN" "http://www.w3.org/Graphics/SVG/1.1/DTD/svg11.dtd">
<svg xmlns="http://www.w3.org/2000/svg" version="1.1" width="512px" height="512px" style="shape-rendering:geometricPrecision; text-rendering:geometricPrecision; image-rendering:optimizeQuality; fill-rule:evenodd; clip-rule:evenodd" xmlns:xlink="http://www.w3.org/1999/xlink">
<g><path style="opacity:0.996" fill="#4d6949" d="M 270.5,137.5 C 281.426,181.291 292.926,224.958 305,268.5C 306.363,284.255 299.196,293.422 283.5,296C 249.696,304.534 216.03,313.534 182.5,323C 175.385,325.127 168.385,324.96 161.5,322.5C 160.609,321.89 159.609,321.557 158.5,321.5C 154.964,317.79 152.464,313.456 151,308.5C 135.931,252.057 121.098,195.557 106.5,139C 107.697,130.133 112.364,123.799 120.5,120C 160.865,108.95 201.365,98.4504 242,88.5C 251.256,89.2865 257.59,93.9532 261,102.5C 264.019,114.245 267.186,125.912 270.5,137.5 Z"/></g>
<g><path style="opacity:0.997" fill="#e5efe3" d="M 270.5,137.5 C 296.474,143.577 322.141,150.743 347.5,159C 354.602,165.307 357.102,173.14 355,182.5C 352.162,193.185 349.329,203.852 346.5,214.5C 334.235,257.626 322.402,300.959 311,344.5C 308.786,354.773 302.453,360.44 292,361.5C 249.431,351.317 207.264,339.817 165.5,327C 163.808,325.693 162.475,324.193 161.5,322.5C 168.385,324.96 175.385,325.127 182.5,323C 216.03,313.534 249.696,304.534 283.5,296C 299.196,293.422 306.363,284.255 305,268.5C 292.926,224.958 281.426,181.291 270.5,137.5 Z"/></g>
<g><path style="opacity:0.993" fill="#e07a24" d="M 346.5,214.5 C 364.799,232.967 382.966,251.634 401,270.5C 405.667,277.5 405.667,284.5 401,291.5C 357.806,335.028 314.306,378.194 270.5,421C 263.298,423.447 256.631,422.447 250.5,418C 221.695,390.195 193.195,362.028 165,333.5C 162.044,329.92 159.877,325.92 158.5,321.5C 159.609,321.557 160.609,321.89 161.5,322.5C 162.475,324.193 163.808,325.693 165.5,327C 207.264,339.817 249.431,351.317 292,361.5C 302.453,360.44 308.786,354.773 311,344.5C 322.402,300.959 334.235,257.626 346.5,214.5 Z"/></g>
</svg>
